<mxfile host="app.diagrams.net" agent="Mozilla/5.0 (Windows NT 10.0; Win64; x64) AppleWebKit/537.36 (KHTML, like Gecko) Chrome/131.0.0.0 Safari/537.36" version="24.9.0">
  <diagram name="Page-1" id="gFcNjjzg2r48VO8zfEkz">
    <mxGraphModel dx="5154" dy="1857" grid="1" gridSize="10" guides="1" tooltips="1" connect="1" arrows="1" fold="1" page="1" pageScale="1" pageWidth="1654" pageHeight="2336" math="0" shadow="0">
      <root>
        <mxCell id="0" />
        <mxCell id="1" parent="0" />
        <mxCell id="cMSnJ5h8vBWiJhX3DcIw-2" value="&lt;font face=&quot;Times New Roman&quot;&gt;Init&lt;/font&gt;" style="ellipse;whiteSpace=wrap;html=1;fontSize=14;" vertex="1" parent="1">
          <mxGeometry x="140" y="710" width="165" height="110" as="geometry" />
        </mxCell>
        <mxCell id="cMSnJ5h8vBWiJhX3DcIw-3" value="Auto Red 1 &amp;amp; Green 2" style="ellipse;whiteSpace=wrap;html=1;fillColor=#f8cecc;strokeColor=#b85450;fontSize=14;" vertex="1" parent="1">
          <mxGeometry x="355" y="710" width="165" height="110" as="geometry" />
        </mxCell>
        <mxCell id="cMSnJ5h8vBWiJhX3DcIw-6" value="" style="endArrow=classic;html=1;rounded=0;exitX=1;exitY=0.5;exitDx=0;exitDy=0;entryX=0;entryY=0.5;entryDx=0;entryDy=0;fontSize=14;" edge="1" parent="1" source="cMSnJ5h8vBWiJhX3DcIw-2" target="cMSnJ5h8vBWiJhX3DcIw-3">
          <mxGeometry width="50" height="50" relative="1" as="geometry">
            <mxPoint x="595" y="920" as="sourcePoint" />
            <mxPoint x="645" y="870" as="targetPoint" />
          </mxGeometry>
        </mxCell>
        <mxCell id="cMSnJ5h8vBWiJhX3DcIw-8" value="Auto Red 1 &amp;amp; Yellow 2" style="ellipse;whiteSpace=wrap;html=1;fillColor=#dae8fc;strokeColor=#6c8ebf;fontSize=14;" vertex="1" parent="1">
          <mxGeometry x="685" y="710" width="165" height="110" as="geometry" />
        </mxCell>
        <mxCell id="cMSnJ5h8vBWiJhX3DcIw-9" value="Auto Green 1 &amp;amp; Red 2" style="ellipse;whiteSpace=wrap;html=1;fillColor=#fff2cc;strokeColor=#d6b656;fontSize=14;" vertex="1" parent="1">
          <mxGeometry x="985" y="710" width="165" height="110" as="geometry" />
        </mxCell>
        <mxCell id="cMSnJ5h8vBWiJhX3DcIw-10" value="Auto Yellow 1 &amp;amp; Red 2" style="ellipse;whiteSpace=wrap;html=1;fillColor=#d5e8d4;strokeColor=#82b366;fontSize=14;" vertex="1" parent="1">
          <mxGeometry x="1285" y="710" width="165" height="110" as="geometry" />
        </mxCell>
        <mxCell id="cMSnJ5h8vBWiJhX3DcIw-13" value="" style="endArrow=classic;html=1;rounded=0;exitX=1;exitY=0.5;exitDx=0;exitDy=0;entryX=0;entryY=0.5;entryDx=0;entryDy=0;fontSize=14;" edge="1" parent="1" source="cMSnJ5h8vBWiJhX3DcIw-3" target="cMSnJ5h8vBWiJhX3DcIw-8">
          <mxGeometry width="50" height="50" relative="1" as="geometry">
            <mxPoint x="625" y="780" as="sourcePoint" />
            <mxPoint x="675" y="730" as="targetPoint" />
          </mxGeometry>
        </mxCell>
        <mxCell id="cMSnJ5h8vBWiJhX3DcIw-14" value="" style="endArrow=classic;html=1;rounded=0;entryX=0.011;entryY=0.549;entryDx=0;entryDy=0;entryPerimeter=0;exitX=0.989;exitY=0.553;exitDx=0;exitDy=0;exitPerimeter=0;fontSize=14;" edge="1" parent="1" source="cMSnJ5h8vBWiJhX3DcIw-8" target="cMSnJ5h8vBWiJhX3DcIw-9">
          <mxGeometry width="50" height="50" relative="1" as="geometry">
            <mxPoint x="825" y="800" as="sourcePoint" />
            <mxPoint x="875" y="750" as="targetPoint" />
          </mxGeometry>
        </mxCell>
        <mxCell id="cMSnJ5h8vBWiJhX3DcIw-15" value="" style="endArrow=classic;html=1;rounded=0;exitX=0.997;exitY=0.545;exitDx=0;exitDy=0;exitPerimeter=0;entryX=-0.001;entryY=0.545;entryDx=0;entryDy=0;entryPerimeter=0;fontSize=14;" edge="1" parent="1" source="cMSnJ5h8vBWiJhX3DcIw-9" target="cMSnJ5h8vBWiJhX3DcIw-10">
          <mxGeometry width="50" height="50" relative="1" as="geometry">
            <mxPoint x="1155" y="770" as="sourcePoint" />
            <mxPoint x="1255" y="740" as="targetPoint" />
          </mxGeometry>
        </mxCell>
        <mxCell id="cMSnJ5h8vBWiJhX3DcIw-16" value="&lt;font face=&quot;Times New Roman&quot;&gt;&amp;nbsp;If Green time = 0&lt;/font&gt;" style="text;html=1;align=center;verticalAlign=middle;whiteSpace=wrap;rounded=0;fontSize=14;" vertex="1" parent="1">
          <mxGeometry x="545" y="740" width="110" height="30" as="geometry" />
        </mxCell>
        <mxCell id="cMSnJ5h8vBWiJhX3DcIw-18" value="&lt;font face=&quot;Times New Roman&quot;&gt;&amp;nbsp;If Green time = 0&lt;/font&gt;" style="text;html=1;align=center;verticalAlign=middle;whiteSpace=wrap;rounded=0;fontSize=14;" vertex="1" parent="1">
          <mxGeometry x="1155" y="740" width="110" height="30" as="geometry" />
        </mxCell>
        <mxCell id="cMSnJ5h8vBWiJhX3DcIw-22" value="" style="curved=1;endArrow=classic;html=1;rounded=0;entryX=1;entryY=1;entryDx=0;entryDy=0;exitX=0.5;exitY=1;exitDx=0;exitDy=0;fontSize=14;" edge="1" parent="1" source="cMSnJ5h8vBWiJhX3DcIw-10" target="cMSnJ5h8vBWiJhX3DcIw-3">
          <mxGeometry width="50" height="50" relative="1" as="geometry">
            <mxPoint x="805" y="1070" as="sourcePoint" />
            <mxPoint x="855" y="1020" as="targetPoint" />
            <Array as="points">
              <mxPoint x="1165" y="870" />
              <mxPoint x="1005" y="900" />
              <mxPoint x="725" y="890" />
            </Array>
          </mxGeometry>
        </mxCell>
        <mxCell id="cMSnJ5h8vBWiJhX3DcIw-31" value="" style="endArrow=none;html=1;rounded=0;fontSize=14;" edge="1" parent="1">
          <mxGeometry width="50" height="50" relative="1" as="geometry">
            <mxPoint x="767.14" y="680" as="sourcePoint" />
            <mxPoint x="1367.8673171164774" y="680" as="targetPoint" />
          </mxGeometry>
        </mxCell>
        <mxCell id="cMSnJ5h8vBWiJhX3DcIw-34" value="Manual Green" style="ellipse;whiteSpace=wrap;html=1;fillColor=#008a00;fontColor=#ffffff;strokeColor=#005700;fontSize=14;" vertex="1" parent="1">
          <mxGeometry x="827.5" y="386.5" width="165" height="110" as="geometry" />
        </mxCell>
        <mxCell id="cMSnJ5h8vBWiJhX3DcIw-39" value="&lt;font face=&quot;Times New Roman&quot;&gt;&amp;nbsp;If Button 1 is pressed&lt;/font&gt;&lt;div&gt;&lt;font face=&quot;Times New Roman&quot;&gt;&lt;span&gt;--&amp;gt;set Init time&lt;/span&gt;&lt;/font&gt;&lt;/div&gt;" style="text;html=1;align=center;verticalAlign=middle;whiteSpace=wrap;rounded=0;fontSize=14;" vertex="1" parent="1">
          <mxGeometry x="305" y="600" width="130" height="30" as="geometry" />
        </mxCell>
        <mxCell id="cMSnJ5h8vBWiJhX3DcIw-46" value="&lt;font face=&quot;Times New Roman&quot;&gt;&amp;nbsp;If Yellow time = 0&lt;/font&gt;&lt;div&gt;&lt;font face=&quot;Times New Roman&quot;&gt;&lt;span&gt;--&amp;gt; set Init time&lt;br&gt;&lt;/span&gt;&lt;/font&gt;&lt;div&gt;&lt;span style=&quot;color: rgba(0, 0, 0, 0); font-family: monospace; text-align: start; text-wrap-mode: nowrap;&quot;&gt;%3CmxGraphModel%3E%3Croot%3E%3CmxCell%20id%3D%220%22%2F%3E%3CmxCell%20id%3D%221%22%20parent%3D%220%22%2F%3E%3CmxCell%20id%3D%222%22%20value%3D%22%26lt%3Bfont%20face%3D%26quot%3BTimes%20New%20Roman%26quot%3B%26gt%3B%26amp%3Bnbsp%3BIf%20Button%201%20is%20pressed%26lt%3B%2Ffont%26gt%3B%22%20style%3D%22text%3Bhtml%3D1%3Balign%3Dcenter%3BverticalAlign%3Dmiddle%3BwhiteSpace%3Dwrap%3Brounded%3D0%3B%22%20vertex%3D%221%22%20parent%3D%221%22%3E%3CmxGeometry%20x%3D%22300%22%20y%3D%22360%22%20width%3D%22110%22%20height%3D%2230%22%20as%3D%22geometry%22%2F%3E%3C%2FmxCell%3E%3C%2Froot%3E%3C%2FmxGraphModel%3E&lt;/span&gt;&lt;font face=&quot;Times New Roman&quot;&gt;&lt;/font&gt;&lt;/div&gt;&lt;/div&gt;" style="text;html=1;align=center;verticalAlign=middle;whiteSpace=wrap;rounded=0;fontSize=14;" vertex="1" parent="1">
          <mxGeometry x="866.5" y="870" width="110" height="30" as="geometry" />
        </mxCell>
        <mxCell id="cMSnJ5h8vBWiJhX3DcIw-50" value="&lt;font face=&quot;Times New Roman&quot;&gt;&amp;nbsp;If Button 1 is pressed&lt;/font&gt;&lt;div&gt;&lt;font face=&quot;Times New Roman&quot;&gt;&lt;span&gt;--&amp;gt; reset count&lt;/span&gt;&lt;/font&gt;&lt;/div&gt;" style="text;html=1;align=center;verticalAlign=middle;whiteSpace=wrap;rounded=0;fontSize=14;" vertex="1" parent="1">
          <mxGeometry x="856.5" y="640" width="130" height="40" as="geometry" />
        </mxCell>
        <mxCell id="cMSnJ5h8vBWiJhX3DcIw-51" value="&lt;font face=&quot;Times New Roman&quot;&gt;&amp;nbsp;If Button 2 is pressed&lt;/font&gt;&lt;div&gt;&lt;font face=&quot;Times New Roman&quot;&gt;--&amp;gt;&amp;nbsp; count ++&lt;/font&gt;&lt;/div&gt;" style="text;html=1;align=center;verticalAlign=middle;whiteSpace=wrap;rounded=0;fontSize=14;" vertex="1" parent="1">
          <mxGeometry x="955" y="546.5" width="140" height="30" as="geometry" />
        </mxCell>
        <mxCell id="cMSnJ5h8vBWiJhX3DcIw-60" value="" style="curved=1;endArrow=classic;html=1;rounded=0;exitX=0;exitY=0.5;exitDx=0;exitDy=0;entryX=0;entryY=1;entryDx=0;entryDy=0;fontSize=14;" edge="1" parent="1" source="cMSnJ5h8vBWiJhX3DcIw-34" target="cMSnJ5h8vBWiJhX3DcIw-34">
          <mxGeometry width="50" height="50" relative="1" as="geometry">
            <mxPoint x="837" y="456.5" as="sourcePoint" />
            <mxPoint x="859" y="490.5" as="targetPoint" />
            <Array as="points">
              <mxPoint x="775" y="456.5" />
              <mxPoint x="765" y="513.5" />
              <mxPoint x="805" y="553.5" />
              <mxPoint x="875" y="523.5" />
            </Array>
          </mxGeometry>
        </mxCell>
        <mxCell id="cMSnJ5h8vBWiJhX3DcIw-63" value="" style="curved=1;endArrow=classic;html=1;rounded=0;exitX=1;exitY=0.5;exitDx=0;exitDy=0;entryX=1;entryY=1;entryDx=0;entryDy=0;fontSize=14;" edge="1" parent="1" source="cMSnJ5h8vBWiJhX3DcIw-34" target="cMSnJ5h8vBWiJhX3DcIw-34">
          <mxGeometry width="50" height="50" relative="1" as="geometry">
            <mxPoint x="983" y="456.5" as="sourcePoint" />
            <mxPoint x="961" y="490.5" as="targetPoint" />
            <Array as="points">
              <mxPoint x="1045" y="456.5" />
              <mxPoint x="1055" y="513.5" />
              <mxPoint x="1015" y="553.5" />
              <mxPoint x="945" y="523.5" />
            </Array>
          </mxGeometry>
        </mxCell>
        <mxCell id="cMSnJ5h8vBWiJhX3DcIw-65" value="&lt;font face=&quot;Times New Roman&quot; style=&quot;forced-color-adjust: none; color: rgb(0, 0, 0); font-style: normal; font-variant-ligatures: normal; font-variant-caps: normal; font-weight: 400; letter-spacing: normal; orphans: 2; text-align: center; text-indent: 0px; text-transform: none; widows: 2; word-spacing: 0px; -webkit-text-stroke-width: 0px; white-space: normal; background-color: rgb(251, 251, 251); text-decoration-thickness: initial; text-decoration-style: initial; text-decoration-color: initial;&quot;&gt;&amp;nbsp;If Button 3 is pressed&lt;/font&gt;&lt;div style=&quot;forced-color-adjust: none; color: rgb(0, 0, 0); font-family: Helvetica; font-style: normal; font-variant-ligatures: normal; font-variant-caps: normal; font-weight: 400; letter-spacing: normal; orphans: 2; text-align: center; text-indent: 0px; text-transform: none; widows: 2; word-spacing: 0px; -webkit-text-stroke-width: 0px; white-space: normal; background-color: rgb(251, 251, 251); text-decoration-thickness: initial; text-decoration-style: initial; text-decoration-color: initial;&quot;&gt;&lt;font face=&quot;Times New Roman&quot; style=&quot;forced-color-adjust: none;&quot;&gt;--&amp;gt;&amp;nbsp; new Green time = count&lt;/font&gt;&lt;/div&gt;" style="text;whiteSpace=wrap;html=1;fontSize=14;" vertex="1" parent="1">
          <mxGeometry x="696.5" y="540" width="170" height="60" as="geometry" />
        </mxCell>
        <mxCell id="cMSnJ5h8vBWiJhX3DcIw-66" value="&lt;font face=&quot;Times New Roman&quot; style=&quot;forced-color-adjust: none; color: rgb(0, 0, 0); font-style: normal; font-variant-ligatures: normal; font-variant-caps: normal; font-weight: 400; letter-spacing: normal; orphans: 2; text-align: center; text-indent: 0px; text-transform: none; widows: 2; word-spacing: 0px; -webkit-text-stroke-width: 0px; white-space: normal; background-color: rgb(251, 251, 251); text-decoration-thickness: initial; text-decoration-style: initial; text-decoration-color: initial; font-size: 14px;&quot;&gt;&amp;nbsp;If Button 3 is pressed&lt;/font&gt;&lt;div style=&quot;forced-color-adjust: none; color: rgb(0, 0, 0); font-family: Helvetica; font-size: 12px; font-style: normal; font-variant-ligatures: normal; font-variant-caps: normal; font-weight: 400; letter-spacing: normal; orphans: 2; text-align: center; text-indent: 0px; text-transform: none; widows: 2; word-spacing: 0px; -webkit-text-stroke-width: 0px; white-space: normal; background-color: rgb(251, 251, 251); text-decoration-thickness: initial; text-decoration-style: initial; text-decoration-color: initial;&quot;&gt;&lt;font face=&quot;Times New Roman&quot; style=&quot;forced-color-adjust: none; font-size: 14px;&quot;&gt;--&amp;gt;&amp;nbsp; new Yellow time = count&lt;/font&gt;&lt;/div&gt;" style="text;whiteSpace=wrap;html=1;" vertex="1" parent="1">
          <mxGeometry x="255" y="290" width="180" height="60" as="geometry" />
        </mxCell>
        <mxCell id="cMSnJ5h8vBWiJhX3DcIw-68" value="Setting Red 1 &amp;amp; Green 2" style="ellipse;whiteSpace=wrap;html=1;fillColor=#f8cecc;strokeColor=#b85450;gradientColor=#ea6b66;fontSize=14;" vertex="1" parent="1">
          <mxGeometry x="355" y="140" width="165" height="110" as="geometry" />
        </mxCell>
        <mxCell id="cMSnJ5h8vBWiJhX3DcIw-69" value="Manual Red" style="ellipse;whiteSpace=wrap;html=1;fillColor=#e51400;fontColor=#ffffff;strokeColor=#B20000;fontSize=14;" vertex="1" parent="1">
          <mxGeometry x="1287.5" y="386.5" width="165" height="110" as="geometry" />
        </mxCell>
        <mxCell id="cMSnJ5h8vBWiJhX3DcIw-70" value="" style="curved=1;endArrow=classic;html=1;rounded=0;exitX=0;exitY=0.5;exitDx=0;exitDy=0;entryX=0;entryY=1;entryDx=0;entryDy=0;fontSize=14;" edge="1" parent="1" source="cMSnJ5h8vBWiJhX3DcIw-69" target="cMSnJ5h8vBWiJhX3DcIw-69">
          <mxGeometry width="50" height="50" relative="1" as="geometry">
            <mxPoint x="1289.5" y="446.5" as="sourcePoint" />
            <mxPoint x="1309.5" y="467.5" as="targetPoint" />
            <Array as="points">
              <mxPoint x="1227.5" y="446.5" />
              <mxPoint x="1217.5" y="503.5" />
              <mxPoint x="1257.5" y="543.5" />
              <mxPoint x="1327.5" y="513.5" />
            </Array>
          </mxGeometry>
        </mxCell>
        <mxCell id="cMSnJ5h8vBWiJhX3DcIw-71" value="&lt;font face=&quot;Times New Roman&quot; style=&quot;forced-color-adjust: none; color: rgb(0, 0, 0); font-style: normal; font-variant-ligatures: normal; font-variant-caps: normal; font-weight: 400; letter-spacing: normal; orphans: 2; text-align: center; text-indent: 0px; text-transform: none; widows: 2; word-spacing: 0px; -webkit-text-stroke-width: 0px; white-space: normal; background-color: rgb(251, 251, 251); text-decoration-thickness: initial; text-decoration-style: initial; text-decoration-color: initial;&quot;&gt;&amp;nbsp;If Button 3 is pressed&lt;/font&gt;&lt;div style=&quot;forced-color-adjust: none; color: rgb(0, 0, 0); font-family: Helvetica; font-style: normal; font-variant-ligatures: normal; font-variant-caps: normal; font-weight: 400; letter-spacing: normal; orphans: 2; text-align: center; text-indent: 0px; text-transform: none; widows: 2; word-spacing: 0px; -webkit-text-stroke-width: 0px; white-space: normal; background-color: rgb(251, 251, 251); text-decoration-thickness: initial; text-decoration-style: initial; text-decoration-color: initial;&quot;&gt;&lt;font face=&quot;Times New Roman&quot; style=&quot;forced-color-adjust: none;&quot;&gt;--&amp;gt;&amp;nbsp; new Red time = count&lt;/font&gt;&lt;/div&gt;" style="text;whiteSpace=wrap;html=1;fontSize=14;" vertex="1" parent="1">
          <mxGeometry x="1150" y="530" width="160" height="60" as="geometry" />
        </mxCell>
        <mxCell id="cMSnJ5h8vBWiJhX3DcIw-72" value="" style="curved=1;endArrow=classic;html=1;rounded=0;exitX=1;exitY=0.5;exitDx=0;exitDy=0;entryX=1;entryY=1;entryDx=0;entryDy=0;fontSize=14;" edge="1" parent="1" source="cMSnJ5h8vBWiJhX3DcIw-69" target="cMSnJ5h8vBWiJhX3DcIw-69">
          <mxGeometry width="50" height="50" relative="1" as="geometry">
            <mxPoint x="1445.5" y="446.5" as="sourcePoint" />
            <mxPoint x="1423.5" y="480.5" as="targetPoint" />
            <Array as="points">
              <mxPoint x="1507.5" y="446.5" />
              <mxPoint x="1517.5" y="503.5" />
              <mxPoint x="1477.5" y="543.5" />
              <mxPoint x="1407.5" y="513.5" />
            </Array>
          </mxGeometry>
        </mxCell>
        <mxCell id="cMSnJ5h8vBWiJhX3DcIw-73" value="Manual Yellow" style="ellipse;whiteSpace=wrap;html=1;fillColor=#e3c800;fontColor=#000000;strokeColor=#B09500;fontSize=14;" vertex="1" parent="1">
          <mxGeometry x="355" y="386.5" width="165" height="110" as="geometry" />
        </mxCell>
        <mxCell id="cMSnJ5h8vBWiJhX3DcIw-74" value="&lt;font face=&quot;Times New Roman&quot;&gt;&amp;nbsp;If Button 2 is pressed&lt;/font&gt;&lt;div&gt;&lt;font face=&quot;Times New Roman&quot;&gt;--&amp;gt;&amp;nbsp; count ++&lt;/font&gt;&lt;/div&gt;" style="text;html=1;align=center;verticalAlign=middle;whiteSpace=wrap;rounded=0;fontSize=14;" vertex="1" parent="1">
          <mxGeometry x="492" y="546.5" width="140" height="30" as="geometry" />
        </mxCell>
        <mxCell id="cMSnJ5h8vBWiJhX3DcIw-75" value="" style="curved=1;endArrow=classic;html=1;rounded=0;exitX=1;exitY=0.5;exitDx=0;exitDy=0;entryX=1;entryY=1;entryDx=0;entryDy=0;fontSize=14;" edge="1" parent="1" source="cMSnJ5h8vBWiJhX3DcIw-73" target="cMSnJ5h8vBWiJhX3DcIw-73">
          <mxGeometry width="50" height="50" relative="1" as="geometry">
            <mxPoint x="510" y="456.5" as="sourcePoint" />
            <mxPoint x="488" y="490.5" as="targetPoint" />
            <Array as="points">
              <mxPoint x="572" y="456.5" />
              <mxPoint x="582" y="513.5" />
              <mxPoint x="542" y="553.5" />
              <mxPoint x="472" y="523.5" />
            </Array>
          </mxGeometry>
        </mxCell>
        <mxCell id="cMSnJ5h8vBWiJhX3DcIw-78" value="" style="endArrow=classic;html=1;rounded=0;exitX=0.5;exitY=0;exitDx=0;exitDy=0;entryX=0.5;entryY=1;entryDx=0;entryDy=0;fontSize=14;" edge="1" parent="1" source="cMSnJ5h8vBWiJhX3DcIw-10" target="cMSnJ5h8vBWiJhX3DcIw-69">
          <mxGeometry width="50" height="50" relative="1" as="geometry">
            <mxPoint x="1425" y="570" as="sourcePoint" />
            <mxPoint x="1475" y="520" as="targetPoint" />
          </mxGeometry>
        </mxCell>
        <mxCell id="cMSnJ5h8vBWiJhX3DcIw-79" value="&lt;font style=&quot;font-size: 14px;&quot; face=&quot;Times New Roman&quot;&gt;&amp;nbsp;If Button 2 is pressed&lt;/font&gt;&lt;div&gt;&lt;font style=&quot;font-size: 14px;&quot; face=&quot;Times New Roman&quot;&gt;--&amp;gt;&amp;nbsp; count ++&lt;/font&gt;&lt;/div&gt;" style="text;html=1;align=center;verticalAlign=middle;whiteSpace=wrap;rounded=0;" vertex="1" parent="1">
          <mxGeometry x="1415" y="540" width="140" height="30" as="geometry" />
        </mxCell>
        <mxCell id="cMSnJ5h8vBWiJhX3DcIw-80" value="" style="endArrow=classic;html=1;rounded=0;exitX=0;exitY=0.5;exitDx=0;exitDy=0;entryX=1;entryY=0.5;entryDx=0;entryDy=0;fontSize=14;" edge="1" parent="1" source="cMSnJ5h8vBWiJhX3DcIw-69" target="cMSnJ5h8vBWiJhX3DcIw-34">
          <mxGeometry width="50" height="50" relative="1" as="geometry">
            <mxPoint x="955" y="460" as="sourcePoint" />
            <mxPoint x="1005" y="410" as="targetPoint" />
          </mxGeometry>
        </mxCell>
        <mxCell id="cMSnJ5h8vBWiJhX3DcIw-81" value="" style="endArrow=classic;html=1;rounded=0;exitX=0.5;exitY=1;exitDx=0;exitDy=0;entryX=0.5;entryY=0;entryDx=0;entryDy=0;fontSize=14;" edge="1" parent="1" source="cMSnJ5h8vBWiJhX3DcIw-73" target="cMSnJ5h8vBWiJhX3DcIw-3">
          <mxGeometry width="50" height="50" relative="1" as="geometry">
            <mxPoint x="575" y="690" as="sourcePoint" />
            <mxPoint x="435" y="640" as="targetPoint" />
          </mxGeometry>
        </mxCell>
        <mxCell id="cMSnJ5h8vBWiJhX3DcIw-83" value="" style="endArrow=classic;html=1;rounded=0;exitX=0.5;exitY=0;exitDx=0;exitDy=0;fontSize=14;" edge="1" parent="1" source="cMSnJ5h8vBWiJhX3DcIw-8">
          <mxGeometry width="50" height="50" relative="1" as="geometry">
            <mxPoint x="885" y="590" as="sourcePoint" />
            <mxPoint x="768" y="680" as="targetPoint" />
          </mxGeometry>
        </mxCell>
        <mxCell id="cMSnJ5h8vBWiJhX3DcIw-84" value="" style="endArrow=classic;html=1;rounded=0;exitX=0.5;exitY=0;exitDx=0;exitDy=0;fontSize=14;" edge="1" parent="1" source="cMSnJ5h8vBWiJhX3DcIw-9">
          <mxGeometry width="50" height="50" relative="1" as="geometry">
            <mxPoint x="885" y="620" as="sourcePoint" />
            <mxPoint x="1068" y="680" as="targetPoint" />
          </mxGeometry>
        </mxCell>
        <mxCell id="cMSnJ5h8vBWiJhX3DcIw-85" value="" style="endArrow=classic;html=1;rounded=0;exitX=1;exitY=0;exitDx=0;exitDy=0;fontSize=14;" edge="1" parent="1" source="cMSnJ5h8vBWiJhX3DcIw-3">
          <mxGeometry width="50" height="50" relative="1" as="geometry">
            <mxPoint x="885" y="620" as="sourcePoint" />
            <mxPoint x="515" y="680" as="targetPoint" />
          </mxGeometry>
        </mxCell>
        <mxCell id="cMSnJ5h8vBWiJhX3DcIw-86" value="" style="endArrow=none;html=1;rounded=0;fontSize=14;" edge="1" parent="1">
          <mxGeometry width="50" height="50" relative="1" as="geometry">
            <mxPoint x="765" y="680" as="sourcePoint" />
            <mxPoint x="515" y="680" as="targetPoint" />
          </mxGeometry>
        </mxCell>
        <mxCell id="cMSnJ5h8vBWiJhX3DcIw-87" value="Setting Red 1 &amp;amp; Yellow 2" style="ellipse;whiteSpace=wrap;html=1;fillColor=#dae8fc;strokeColor=#6c8ebf;gradientColor=#7ea6e0;fontSize=14;" vertex="1" parent="1">
          <mxGeometry x="685" y="140" width="165" height="110" as="geometry" />
        </mxCell>
        <mxCell id="cMSnJ5h8vBWiJhX3DcIw-88" value="Setting Yellow 1 &amp;amp; Red2" style="ellipse;whiteSpace=wrap;html=1;fillColor=#d5e8d4;strokeColor=#82b366;gradientColor=#97d077;fontSize=14;" vertex="1" parent="1">
          <mxGeometry x="1285" y="140" width="165" height="110" as="geometry" />
        </mxCell>
        <mxCell id="cMSnJ5h8vBWiJhX3DcIw-89" value="Setting Green 1 &amp;amp; Red 2" style="ellipse;whiteSpace=wrap;html=1;fillColor=#fff2cc;strokeColor=#d6b656;gradientColor=#ffd966;fontSize=14;" vertex="1" parent="1">
          <mxGeometry x="990" y="140" width="165" height="110" as="geometry" />
        </mxCell>
        <mxCell id="cMSnJ5h8vBWiJhX3DcIw-90" value="" style="endArrow=classic;html=1;rounded=0;exitX=0.5;exitY=0;exitDx=0;exitDy=0;entryX=0.5;entryY=1;entryDx=0;entryDy=0;fontSize=14;" edge="1" parent="1" source="cMSnJ5h8vBWiJhX3DcIw-73" target="cMSnJ5h8vBWiJhX3DcIw-68">
          <mxGeometry width="50" height="50" relative="1" as="geometry">
            <mxPoint x="895" y="430" as="sourcePoint" />
            <mxPoint x="945" y="380" as="targetPoint" />
          </mxGeometry>
        </mxCell>
        <mxCell id="cMSnJ5h8vBWiJhX3DcIw-91" value="&lt;font face=&quot;Times New Roman&quot;&gt;&amp;nbsp;If Button 1 is pressed&lt;/font&gt;&lt;div&gt;&lt;font face=&quot;Times New Roman&quot;&gt;&lt;span&gt;--&amp;gt; reset count&lt;/span&gt;&lt;/font&gt;&lt;/div&gt;" style="text;html=1;align=center;verticalAlign=middle;whiteSpace=wrap;rounded=0;fontSize=14;" vertex="1" parent="1">
          <mxGeometry x="1074" y="400" width="130" height="40" as="geometry" />
        </mxCell>
        <mxCell id="cMSnJ5h8vBWiJhX3DcIw-92" value="&lt;font face=&quot;Times New Roman&quot;&gt;&amp;nbsp;If Button 1 is pressed&lt;/font&gt;&lt;div&gt;&lt;font face=&quot;Times New Roman&quot;&gt;&lt;span&gt;--&amp;gt; reset count&lt;/span&gt;&lt;/font&gt;&lt;/div&gt;" style="text;html=1;align=center;verticalAlign=middle;whiteSpace=wrap;rounded=0;fontSize=14;" vertex="1" parent="1">
          <mxGeometry x="615" y="400" width="130" height="40" as="geometry" />
        </mxCell>
        <mxCell id="cMSnJ5h8vBWiJhX3DcIw-93" value="" style="endArrow=classic;html=1;rounded=0;exitX=0;exitY=0.5;exitDx=0;exitDy=0;entryX=1;entryY=0.5;entryDx=0;entryDy=0;fontSize=14;" edge="1" parent="1" source="cMSnJ5h8vBWiJhX3DcIw-34" target="cMSnJ5h8vBWiJhX3DcIw-73">
          <mxGeometry width="50" height="50" relative="1" as="geometry">
            <mxPoint x="895" y="550" as="sourcePoint" />
            <mxPoint x="945" y="500" as="targetPoint" />
          </mxGeometry>
        </mxCell>
        <mxCell id="cMSnJ5h8vBWiJhX3DcIw-94" value="" style="endArrow=classic;html=1;rounded=0;exitX=1;exitY=0.5;exitDx=0;exitDy=0;entryX=0;entryY=0.5;entryDx=0;entryDy=0;fontSize=14;" edge="1" parent="1" source="cMSnJ5h8vBWiJhX3DcIw-68" target="cMSnJ5h8vBWiJhX3DcIw-87">
          <mxGeometry width="50" height="50" relative="1" as="geometry">
            <mxPoint x="815" y="260" as="sourcePoint" />
            <mxPoint x="865" y="210" as="targetPoint" />
          </mxGeometry>
        </mxCell>
        <mxCell id="cMSnJ5h8vBWiJhX3DcIw-95" value="" style="endArrow=classic;html=1;rounded=0;entryX=0;entryY=0.5;entryDx=0;entryDy=0;exitX=1;exitY=0.5;exitDx=0;exitDy=0;fontSize=14;" edge="1" parent="1" source="cMSnJ5h8vBWiJhX3DcIw-87" target="cMSnJ5h8vBWiJhX3DcIw-89">
          <mxGeometry width="50" height="50" relative="1" as="geometry">
            <mxPoint x="815" y="260" as="sourcePoint" />
            <mxPoint x="865" y="210" as="targetPoint" />
          </mxGeometry>
        </mxCell>
        <mxCell id="cMSnJ5h8vBWiJhX3DcIw-96" value="" style="endArrow=classic;html=1;rounded=0;exitX=1;exitY=0.5;exitDx=0;exitDy=0;fontSize=14;" edge="1" parent="1" source="cMSnJ5h8vBWiJhX3DcIw-89" target="cMSnJ5h8vBWiJhX3DcIw-88">
          <mxGeometry width="50" height="50" relative="1" as="geometry">
            <mxPoint x="815" y="260" as="sourcePoint" />
            <mxPoint x="865" y="210" as="targetPoint" />
          </mxGeometry>
        </mxCell>
        <mxCell id="cMSnJ5h8vBWiJhX3DcIw-97" value="&lt;font face=&quot;Times New Roman&quot;&gt;&amp;nbsp;If new Green time = 0&lt;/font&gt;" style="text;html=1;align=center;verticalAlign=middle;whiteSpace=wrap;rounded=0;fontSize=14;" vertex="1" parent="1">
          <mxGeometry x="535" y="170" width="130" height="30" as="geometry" />
        </mxCell>
        <mxCell id="cMSnJ5h8vBWiJhX3DcIw-98" value="&lt;font face=&quot;Times New Roman&quot;&gt;&amp;nbsp;If new Yellow time = 0&lt;/font&gt;&lt;div&gt;&lt;font face=&quot;Times New Roman&quot;&gt;--&amp;gt; renew new time&lt;/font&gt;&lt;/div&gt;" style="text;html=1;align=center;verticalAlign=middle;whiteSpace=wrap;rounded=0;fontSize=14;" vertex="1" parent="1">
          <mxGeometry x="845" y="160" width="145" height="30" as="geometry" />
        </mxCell>
        <mxCell id="cMSnJ5h8vBWiJhX3DcIw-99" value="&lt;font face=&quot;Times New Roman&quot;&gt;&amp;nbsp;If new Green time = 0&lt;/font&gt;" style="text;html=1;align=center;verticalAlign=middle;whiteSpace=wrap;rounded=0;fontSize=14;" vertex="1" parent="1">
          <mxGeometry x="1155" y="170" width="130" height="30" as="geometry" />
        </mxCell>
        <mxCell id="cMSnJ5h8vBWiJhX3DcIw-101" value="" style="curved=1;endArrow=classic;html=1;rounded=0;entryX=0;entryY=0;entryDx=0;entryDy=0;exitX=1;exitY=0;exitDx=0;exitDy=0;fontSize=14;" edge="1" parent="1">
          <mxGeometry width="50" height="50" relative="1" as="geometry">
            <mxPoint x="1309.9955253352068" y="159.99991664884362" as="sourcePoint" />
            <mxPoint x="497.50447466480364" y="159.99991664885" as="targetPoint" />
            <Array as="points">
              <mxPoint x="1117.75000000001" y="77.61000000000001" />
              <mxPoint x="971.25000000001" y="63.610000000000014" />
              <mxPoint x="681.25000000001" y="73.61000000000001" />
            </Array>
          </mxGeometry>
        </mxCell>
        <mxCell id="cMSnJ5h8vBWiJhX3DcIw-102" value="&lt;font face=&quot;Times New Roman&quot;&gt;&amp;nbsp;If new Yellow time = 0&lt;/font&gt;&lt;div&gt;&lt;font face=&quot;Times New Roman&quot;&gt;--&amp;gt; renew new time&lt;/font&gt;&lt;/div&gt;" style="text;html=1;align=center;verticalAlign=middle;whiteSpace=wrap;rounded=0;fontSize=14;" vertex="1" parent="1">
          <mxGeometry x="827.5" y="30" width="145" height="30" as="geometry" />
        </mxCell>
        <mxCell id="cMSnJ5h8vBWiJhX3DcIw-107" value="" style="endArrow=classic;html=1;rounded=0;entryX=0.5;entryY=0;entryDx=0;entryDy=0;exitX=0.5;exitY=1;exitDx=0;exitDy=0;fontSize=14;" edge="1" parent="1" source="cMSnJ5h8vBWiJhX3DcIw-88" target="cMSnJ5h8vBWiJhX3DcIw-69">
          <mxGeometry width="50" height="50" relative="1" as="geometry">
            <mxPoint x="1370" y="300" as="sourcePoint" />
            <mxPoint x="945" y="450" as="targetPoint" />
          </mxGeometry>
        </mxCell>
        <mxCell id="cMSnJ5h8vBWiJhX3DcIw-109" value="" style="endArrow=none;html=1;rounded=0;fontSize=14;" edge="1" parent="1">
          <mxGeometry width="50" height="50" relative="1" as="geometry">
            <mxPoint x="555" y="290" as="sourcePoint" />
            <mxPoint x="1375" y="290" as="targetPoint" />
          </mxGeometry>
        </mxCell>
        <mxCell id="cMSnJ5h8vBWiJhX3DcIw-110" value="" style="endArrow=classic;html=1;rounded=0;exitX=0.5;exitY=1;exitDx=0;exitDy=0;fontSize=14;" edge="1" parent="1" source="cMSnJ5h8vBWiJhX3DcIw-89">
          <mxGeometry width="50" height="50" relative="1" as="geometry">
            <mxPoint x="875" y="270" as="sourcePoint" />
            <mxPoint x="1073" y="290" as="targetPoint" />
          </mxGeometry>
        </mxCell>
        <mxCell id="cMSnJ5h8vBWiJhX3DcIw-111" value="" style="endArrow=classic;html=1;rounded=0;exitX=0.5;exitY=1;exitDx=0;exitDy=0;fontSize=14;" edge="1" parent="1" source="cMSnJ5h8vBWiJhX3DcIw-87">
          <mxGeometry width="50" height="50" relative="1" as="geometry">
            <mxPoint x="875" y="270" as="sourcePoint" />
            <mxPoint x="768" y="290" as="targetPoint" />
          </mxGeometry>
        </mxCell>
        <mxCell id="cMSnJ5h8vBWiJhX3DcIw-112" value="" style="endArrow=classic;html=1;rounded=0;exitX=1;exitY=1;exitDx=0;exitDy=0;fontSize=14;" edge="1" parent="1" source="cMSnJ5h8vBWiJhX3DcIw-68">
          <mxGeometry width="50" height="50" relative="1" as="geometry">
            <mxPoint x="875" y="270" as="sourcePoint" />
            <mxPoint x="555" y="290" as="targetPoint" />
          </mxGeometry>
        </mxCell>
        <mxCell id="cMSnJ5h8vBWiJhX3DcIw-113" value="&lt;font face=&quot;Times New Roman&quot;&gt;&amp;nbsp;If Button 1 is pressed&lt;/font&gt;&lt;div&gt;&lt;font face=&quot;Times New Roman&quot;&gt;&lt;span&gt;--&amp;gt; reset count&lt;/span&gt;&lt;/font&gt;&lt;/div&gt;" style="text;html=1;align=center;verticalAlign=middle;whiteSpace=wrap;rounded=0;fontSize=14;" vertex="1" parent="1">
          <mxGeometry x="846.5" y="290" width="130" height="40" as="geometry" />
        </mxCell>
      </root>
    </mxGraphModel>
  </diagram>
</mxfile>
